
<svg version="1.1" xmlns="http://www.w3.org/2000/svg" width="1254" height="1254" viewBox="0 0 1254 1254" preserveAspectRatio="xMidYMid meet">
<path d="M0 0 C413.82 0 827.64 0 1254 0 C1254 413.82 1254 827.64 1254 1254 C840.18 1254 426.36 1254 0 1254 C0 840.18 0 426.36 0 0 Z " fill="#020203" transform="translate(0,0)" />
<path d="M0 0 C3.40916353 3.99801904 5.9302357 8.20076628 8.5 12.75 C18.64988105 30.33650323 31.14426627 46.46676316 44.3359375 61.86328125 C46.8459573 64.79947962 49.26929015 67.80012519 51.6875 70.8125 C54.88168295 74.74117422 58.21054268 78.37089272 61.8828125 81.85546875 C63.70298208 83.69914606 65.37428105 85.58130134 67.05859375 87.546875 C71.31804912 92.45147926 75.88698812 97.03759729 80.48803711 101.6184082 C81.93524385 103.06025221 83.37702026 104.50737116 84.81835938 105.95507812 C89.50448479 110.64421409 94.23827974 115.2230031 99.29711914 119.51147461 C101.11543086 121.10090064 102.80934681 122.77609797 104.5 124.5 C108.16270803 128.2118719 112.03979429 131.61011518 116 135 C117.05482382 135.90739364 118.10949986 136.81495908 119.1640625 137.72265625 C122.76954218 140.82272812 126.38330316 143.91302629 130 147 C130.57508301 147.49113281 131.15016602 147.98226562 131.74267578 148.48828125 C138.73158305 154.45064882 145.79710446 160.2967237 153 166 C154.60438356 167.29139726 156.20854603 168.58306923 157.8125 169.875 C162.13264671 173.3324653 166.5091624 176.71301435 170.90161133 180.07763672 C174.95829715 183.18853049 178.98521195 186.33526483 183 189.5 C187.47808129 193.02917809 191.97494937 196.53125298 196.5 200 C212.03087869 211.92297947 227.29052316 224.15386388 242.125 236.9375 C242.71595459 237.44458496 243.30690918 237.95166992 243.91577148 238.47412109 C247.58020222 241.65555349 251.03250647 244.99201719 254.44189453 248.44458008 C256.18142386 250.18111116 257.9932222 251.79430665 259.875 253.375 C266.39267287 259.01020266 272.41793331 265.13192887 278.015625 271.6796875 C279.5295273 273.44988034 281.06476703 275.20184782 282.609375 276.9453125 C304.36720662 301.63165849 323.11136748 330.23120725 335 361 C335.44601562 362.05703125 335.89203125 363.1140625 336.3515625 364.203125 C345.09259378 385.11724892 351.69736434 406.98666792 357 429 C357.40456397 430.6381157 357.80949923 432.27613976 358.21484375 433.9140625 C360.93074287 445.06188097 360.93074287 445.06188097 361.48046875 450.09765625 C361.8509885 453.85459261 361.8509885 453.85459261 362.93115234 456.72290039 C364.18338084 460.56224783 364.91518595 464.36644862 365.62109375 468.3359375 C365.76652115 469.13295074 365.91194855 469.92996399 366.06178284 470.75112915 C366.52445996 473.29169449 366.98115316 475.83329077 367.4375 478.375 C367.73982274 480.04304341 368.04255378 481.71101287 368.34570312 483.37890625 C368.79582382 485.85546015 369.24540128 488.33210083 369.69248962 490.8092041 C370.51883543 495.38304485 371.36630446 499.95206742 372.23696899 504.51766968 C373.51836674 511.24452915 374.65112502 517.96368986 375.5625 524.75 C375.81156299 526.54049517 376.06155722 528.33086107 376.3125 530.12109375 C376.48845703 531.37962158 376.48845703 531.37962158 376.66796875 532.66357422 C377.51745002 538.64117401 378.36285866 544.58905581 379.90649414 550.43017578 C381.2625602 555.82773211 382.12888571 561.29557402 383.0234375 566.78515625 C383.21088531 567.9178746 383.39833313 569.05059296 383.59146118 570.21763611 C384.18906185 573.83208929 384.78224866 577.44724869 385.375 581.0625 C388.76014604 601.62984023 388.76014604 601.62984023 392.2265625 622.18359375 C392.39110931 623.16441422 392.55565613 624.14523468 392.72518921 625.15577698 C392.87855743 626.04595016 393.03192566 626.93612335 393.18994141 627.85327148 C393.32284576 628.63379379 393.45575012 629.4143161 393.59268188 630.2184906 C393.83716392 632.0144025 393.83716392 632.0144025 395 633 C395.35078613 632.37359619 395.70157227 631.74719238 396.06298828 631.10180664 C397.13067679 629.19522002 398.19838733 627.28864573 399.26611328 625.38208008 C400.52245623 623.13851623 401.77863689 620.89486151 403.03466797 618.65112305 C406.2276523 612.9475683 409.42291252 607.24532674 412.625 601.546875 C413.79189125 599.4688761 414.95856036 597.39075244 416.125 595.3125 C416.69927734 594.28930664 417.27355469 593.26611328 417.86523438 592.21191406 C422.34787431 584.20647631 426.75239882 576.16008243 431.09423828 568.07739258 C433.53723222 563.55686141 436.06050206 559.21604047 439 555 C442.07497447 558.62514855 444.36804532 562.28217212 446.57421875 566.48828125 C446.89917831 567.10356689 447.22413788 567.71885254 447.5589447 568.3527832 C448.24954285 569.66131746 448.93787252 570.97105112 449.62408447 572.28189087 C451.41640396 575.70435389 453.22674415 579.11727119 455.03515625 582.53125 C455.38676819 583.19602859 455.73838013 583.86080719 456.10064697 584.54573059 C459.52602372 591.01375845 463.09345684 597.39035766 466.72021484 603.74658203 C469.64808427 608.90191107 472.53932843 614.07794046 475.4375 619.25 C476.05383301 620.34739502 476.67016602 621.44479004 477.30517578 622.57543945 C477.88380371 623.60757568 478.46243164 624.63971191 479.05859375 625.703125 C479.57736084 626.62770508 480.09612793 627.55228516 480.63061523 628.50488281 C481.80712105 630.64856073 482.91395641 632.80982629 484 635 C484.0972084 634.39978027 484.19441681 633.79956055 484.29457092 633.18115234 C488.48490411 607.32056708 492.6788214 581.46323546 497.24795532 555.66647339 C499.15362085 544.90628798 500.99914667 534.14192481 502.67114258 523.34228516 C504.97341482 508.52322026 507.74617973 493.78182084 510.53442383 479.04785156 C510.89045198 477.16154428 511.24424526 475.27481399 511.59594727 473.38769531 C512.1124455 470.61689009 512.6355464 467.84740438 513.16015625 465.078125 C513.31541275 464.23856262 513.47066925 463.39900024 513.63063049 462.53399658 C514.40926998 458.46488479 515.3468528 454.8200808 517 451 C517.41791677 448.71577 517.78590432 446.42225385 518.125 444.125 C521.33937098 424.65740578 526.94516058 405.5063663 533.1875 386.8125 C533.59105713 385.60311768 533.99461426 384.39373535 534.41040039 383.14770508 C538.76211867 370.39125859 544.09070255 358.10596126 550 346 C550.40573242 345.1656543 550.81146484 344.33130859 551.22949219 343.47167969 C561.52044611 322.51817512 574.03512099 302.93293223 589 285 C589.44118164 284.46407227 589.88236328 283.92814453 590.33691406 283.37597656 C600.21624786 271.38014997 610.78600289 260.1335145 621.75 249.125 C622.54212891 248.32819824 623.33425781 247.53139648 624.15039062 246.71044922 C628.93972741 241.93413783 633.87403068 237.41018723 639 233 C640.60768373 231.54554483 642.21239715 230.08779105 643.8125 228.625 C648.18635971 224.67312063 652.70972122 220.94724635 657.29296875 217.2421875 C659.87303591 215.10516218 662.34714485 212.89264255 664.8125 210.625 C669.21870608 206.60860046 673.82997105 202.94863019 678.53955078 199.30175781 C683.47566749 195.46003803 688.22909285 191.43560726 692.95776367 187.34277344 C697.31848403 183.57087593 701.75567094 179.90571395 706.23046875 176.26953125 C710.9832692 172.37478222 715.65640732 168.38655865 720.33837891 164.40722656 C721.98489669 163.01279099 723.63779662 161.62633442 725.29296875 160.2421875 C731.73042618 154.84965347 738.00664041 149.32306458 744.16796875 143.6171875 C746.75946297 141.22228939 749.37243235 138.85517228 752 136.5 C753.66692784 135.00029024 755.33356016 133.500252 757 132 C757.83233154 131.25451904 758.66466309 130.50903809 759.5222168 129.7409668 C767.8047995 122.24523314 775.73334451 114.42002711 783.61987305 106.51049805 C785.8229211 104.30205337 788.03131469 102.09905449 790.24023438 99.89648438 C791.66698765 98.46907076 793.09343095 97.04134723 794.51953125 95.61328125 C795.16759232 94.96724442 795.81565338 94.32120758 796.48335266 93.65559387 C800.85284123 89.26394116 804.9602721 84.69503845 809 80 C810.05713687 78.7968954 811.11552156 77.59488472 812.17578125 76.39453125 C818.64024534 69.02965604 824.84549641 61.55266249 830.71679688 53.70410156 C832.07283524 51.90327436 833.448981 50.1191203 834.828125 48.3359375 C846.56506344 33.06706793 856.84560097 16.93682094 866 0 C866.33 0 866.66 0 867 0 C867.23454721 8.3403871 866.61487966 16.21378698 865.25 24.4375 C865.06663086 25.56857178 864.88326172 26.69964355 864.69433594 27.86499023 C864.31736559 30.16318382 863.93495256 32.46049184 863.546875 34.75683594 C863.20535604 36.78216535 862.87083051 38.80870123 862.546875 40.83691406 C857.12169619 74.78195646 843.74897122 109.74981601 824 138 C823.62665527 138.53882813 823.25331055 139.07765625 822.86865234 139.6328125 C815.55082495 150.16723544 807.79333772 160.16487211 799.13671875 169.64453125 C797.29940792 171.66993971 795.51959312 173.72831255 793.75 175.8125 C786.17618411 184.49855459 777.8013357 192.57192235 769 200 C767.95206034 200.91023405 766.90529407 201.82181987 765.859375 202.734375 C758.73436252 208.93212557 751.4701011 214.88480455 743.91845703 220.55859375 C741.73243414 222.20103192 739.55195792 223.8507187 737.37109375 225.5 C720.21169944 238.44975729 702.78341597 250.9234614 685 263 C634.42655098 297.36583798 634.42655098 297.36583798 592 341 C591.29101562 341.89203125 590.58203125 342.7840625 589.8515625 343.703125 C579.87197648 356.60092931 571.58470562 370.52204205 564 384.9375 C563.46020508 385.95481201 562.92041016 386.97212402 562.36425781 388.02026367 C559.26930473 394.01783088 556.88666806 399.95471814 554.8671875 406.39233398 C553.8580801 409.42675858 552.43167704 412.14442677 551 415 C549.89136816 418.26059652 548.94467724 421.56370948 548 424.875 C546.65408301 429.55065953 545.32249562 434.1660808 543.56640625 438.70703125 C541.42034794 444.27140395 539.98652893 450.05769616 538.46557617 455.81665039 C537.94096311 457.79941128 537.40745617 459.77962563 536.87304688 461.75976562 C535.1003527 468.39126773 533.51201423 474.99599462 532.40283203 481.77368164 C532 484 532 484 530.9375 487.625 C530.0005699 490.99794834 529.60322728 494.1167544 529.34375 497.59375 C528.98301543 500.11889197 528.2783584 502.44950843 527.55273438 504.88964844 C526.392686 509.31873772 525.74642345 513.86147069 525 518.375 C523.94954536 524.67772782 522.8642201 530.93284792 521.3671875 537.14697266 C520.90281197 539.17562068 520.90281197 539.17562068 521 542 C521.35191406 541.32195313 521.70382812 540.64390625 522.06640625 539.9453125 C525.61085064 533.26361837 529.48649413 527.06654015 534 521 C534.54785156 520.24589844 535.09570312 519.49179687 535.66015625 518.71484375 C546.55488091 504.37211832 559.81381896 492.5848151 575 483 C576.59521484 481.98679687 576.59521484 481.98679687 578.22265625 480.953125 C593.72929476 471.90925325 610.68816809 468.44021793 628.23632812 465.84765625 C636.88612188 464.5614746 645.37713597 462.94566584 653.875 460.875 C654.87176758 460.63322021 655.86853516 460.39144043 656.89550781 460.14233398 C662.11599778 458.83542059 667.1801829 457.3302423 672.22705078 455.45751953 C672.81212402 455.30653809 673.39719727 455.15555664 674 455 C674.66 455.33 675.32 455.66 676 456 C653.865045 480.80706056 630.87789846 494.18942298 598.3125 501.875 C582.77736454 505.85478751 568.43332501 514.01040952 556 524 C555.16339844 524.66644531 554.32679688 525.33289063 553.46484375 526.01953125 C540.29891074 537.10782132 531.19047016 552.07394583 523 567 C522.5978125 567.73089844 522.195625 568.46179688 521.78125 569.21484375 C518.62603724 575.23264873 516.3512873 581.636487 514 588 C513.69296143 588.81831299 513.38592285 589.63662598 513.06958008 590.47973633 C502.60101461 618.70447395 496.60129276 649.16071717 493 679 C492.34 679 491.68 679 491 679 C490.7097998 678.42894531 490.41959961 677.85789062 490.12060547 677.26953125 C483.89384461 665.0634305 477.40612649 653.07616262 470.43188477 641.28076172 C465.92153817 633.63570881 461.59109036 625.9012373 457.3125 618.125 C451.49367106 607.56319971 445.41825237 597.20782342 439 587 C438.54898926 587.7892688 438.54898926 587.7892688 438.08886719 588.59448242 C437.17391827 590.19564303 436.25895962 591.79679807 435.34399414 593.39794922 C434.26498549 595.28625566 433.18604878 597.17460321 432.10717773 599.06298828 C429.40251304 603.79683559 426.69700571 608.53019311 423.98828125 613.26171875 C413.59300969 631.42484746 403.27359404 649.62949378 393.140625 667.94042969 C391.09773934 671.62916759 389.04860471 675.31443609 387 679 C386.67 679 386.34 679 386 679 C385.764021 677.77821045 385.52804199 676.5564209 385.28491211 675.29760742 C376.96309555 631.54877436 376.96309555 631.54877436 364 589 C363.62617187 587.9790625 363.25234375 586.958125 362.8671875 585.90625 C356.97059388 570.89673898 349.01709257 556.63230301 339 544 C338.52272461 543.39784668 338.04544922 542.79569336 337.55371094 542.17529297 C331.38736921 534.49649023 325.12487228 527.66712824 317 522 C315.98808594 521.27425781 314.97617187 520.54851563 313.93359375 519.80078125 C298.92379457 509.3734822 282.38545218 504.36851301 264.85888672 499.85693359 C235.67135817 492.31833471 214.77605057 478.62095774 194 457 C194.33 456.34 194.66 455.68 195 455 C195.57250488 455.25249512 196.14500977 455.50499023 196.73486328 455.76513672 C203.64351641 458.68407351 210.55642179 460.5342097 217.875 462.125 C219.64858887 462.51619019 219.64858887 462.51619019 221.45800781 462.9152832 C230.15448372 464.76495944 238.7355082 465.85085666 247.58203125 466.59375 C272.04565161 468.69679065 296.96259163 478.40063273 316.2265625 493.64453125 C321.29565733 497.94969207 326.18329288 502.41533863 331 507 C331.96873047 507.88945313 331.96873047 507.88945313 332.95703125 508.796875 C342.72498059 518.03868187 349.63570881 529.28416918 356 541 C354.61496976 530.43269324 352.75057947 520.01411891 350.6875 509.5625 C350.53348724 508.77718903 350.37947449 507.99187805 350.22079468 507.18276978 C346.65461556 489.00371811 343.08538156 470.82660275 338 453 C337.73928711 452.07477539 337.47857422 451.14955078 337.20996094 450.19628906 C336.31417215 447.02449613 335.408622 443.85563909 334.5 440.6875 C334.07291748 439.18328491 334.07291748 439.18328491 333.63720703 437.64868164 C332.008532 432.03658151 330.14252159 426.63161366 327.91064453 421.23120117 C326.71357859 418.29822916 325.70234616 415.3127543 324.6875 412.3125 C321.95394487 404.62541164 318.63244509 397.29399082 315 390 C314.62713867 389.25024902 314.25427734 388.50049805 313.87011719 387.72802734 C308.29601433 376.61868946 302.22476368 366.11413753 295 356 C294.54399414 355.35466309 294.08798828 354.70932617 293.61816406 354.04443359 C286.18285658 343.58550244 277.94379099 334.18755973 269 325 C268.175 324.13503906 267.35 323.27007813 266.5 322.37890625 C261.04509991 316.75841098 255.12322908 311.87199453 249 307 C247.8648832 306.07544786 246.73081237 305.14961041 245.59765625 304.22265625 C227.09873033 289.14610701 207.29024108 276.16020399 187.32366943 263.1391449 C181.35296988 259.24117722 175.41768836 255.29179495 169.48999023 251.32885742 C166.24985703 249.16362405 162.99760655 247.01719667 159.7421875 244.875 C150.30461943 238.65135741 140.936456 232.45795042 132.07421875 225.4296875 C128.3733055 222.50469634 124.59621365 219.69144851 120.8125 216.875 C114.7794027 212.36347125 108.81399589 207.79286686 103 203 C101.53046875 201.79150391 101.53046875 201.79150391 100.03125 200.55859375 C57.43810969 165.20740144 25.72607712 121.66052286 9.8984375 68.29296875 C3.79290304 45.91485767 -0.51231975 23.25362442 0 0 Z " fill="#DDDBDB" transform="translate(201,280)" />
<path d="M0 0 C3.07234465 2.23443247 5.5777649 4.60056647 8 7.5 C13.16206068 13.52240413 19.08369883 18.73633228 25 24 C25.51304687 24.45777832 26.02609375 24.91555664 26.5546875 25.38720703 C57.72927311 52.99811754 94.64778069 72.65816683 131.5 91.5 C172.11431246 112.27099374 211.72650663 134.35598242 245 166 C245.56654297 166.53786133 246.13308594 167.07572266 246.71679688 167.62988281 C254.77472102 175.3361075 262.08490194 183.31986625 268.72509766 192.28076172 C269.9627098 193.94971322 271.22053819 195.60177553 272.48046875 197.25390625 C283.07845703 211.39156376 292.38090978 227.37989456 298.78125 243.87109375 C299.78028477 246.4359234 300.80550832 248.98612641 301.84375 251.53515625 C302.500318 253.16914309 303.15656567 254.80325868 303.8125 256.4375 C304.13903564 257.23140137 304.46557129 258.02530273 304.80200195 258.84326172 C305.10066162 259.59494629 305.39932129 260.34663086 305.70703125 261.12109375 C305.9800708 261.7958374 306.25311035 262.47058105 306.53442383 263.16577148 C307 265 307 265 306 268 C305.443125 267.17757813 304.88625 266.35515625 304.3125 265.5078125 C299.48561923 258.42589838 294.50156503 251.58068112 289 245 C288.54189941 244.45166504 288.08379883 243.90333008 287.61181641 243.33837891 C265.75627757 217.26697855 239.75537458 198.20562624 210 182 C209.17677246 181.54995605 208.35354492 181.09991211 207.50537109 180.63623047 C190.59124122 171.51675414 172.82108795 164.21088473 155.13964844 156.73657227 C116.64409323 140.4575192 116.64409323 140.4575192 104.1875 133.125 C103.33623535 132.63088623 102.4849707 132.13677246 101.60791016 131.62768555 C61.72080297 108.09317711 31.71159829 74.80162083 12 33 C9.10655629 26.42220522 6.52296809 19.72690531 4 13 C3.54367188 11.80117188 3.08734375 10.60234375 2.6171875 9.3671875 C0 2.35751748 0 2.35751748 0 0 Z " fill="#E1DFDF" transform="translate(220,468)" />
<path d="M0 0 C0.33 0.66 0.66 1.32 1 2 C0.27832031 4.44824219 0.27832031 4.44824219 -0.921875 7.546875 C-1.36499023 8.69164307 -1.80810547 9.83641113 -2.26464844 11.01586914 C-2.7586642 12.26101698 -3.2538074 13.50571803 -3.75 14.75 C-4.12131042 15.68922806 -4.12131042 15.68922806 -4.50012207 16.64743042 C-10.881047 32.73603684 -18.01476693 48.79107832 -28 63 C-28.36947754 63.53496094 -28.73895508 64.06992187 -29.11962891 64.62109375 C-52.74924281 98.80457065 -83.1018126 125.1756444 -120.79736328 142.95605469 C-123.25788232 144.12222398 -125.70511191 145.314019 -128.15234375 146.5078125 C-138.4090919 151.48894113 -148.74360241 156.23728723 -159.1875 160.8125 C-185.45390691 172.3860235 -211.50022307 184.93964094 -234 203 C-234.89332031 203.70253906 -235.78664063 204.40507813 -236.70703125 205.12890625 C-258.37672054 222.45845749 -276.83503645 242.74454721 -292 266 C-293 263 -293 263 -292.1796875 259.8125 C-291.75614618 258.5378375 -291.32049794 257.26715561 -290.875 256 C-290.64272705 255.32573975 -290.4104541 254.65147949 -290.17114258 253.95678711 C-288.12353466 248.1297257 -285.72094527 242.54568681 -283 237 C-282.71785645 236.41669922 -282.43571289 235.83339844 -282.14501953 235.23242188 C-274.36225392 219.16424512 -265.95336564 204.13567731 -255 190 C-254.28714844 189.07316406 -253.57429687 188.14632812 -252.83984375 187.19140625 C-239.53817164 170.24036883 -224.13923597 154.03592201 -206.73339844 141.28466797 C-204.90437835 139.92913224 -203.11156552 138.53391156 -201.3203125 137.12890625 C-184.3912722 123.95588902 -165.67615416 113.46505427 -147 103 C-146.27345215 102.59249512 -145.5469043 102.18499023 -144.79833984 101.76513672 C-137.88608566 97.89498184 -130.95097809 94.06677458 -124.00227356 90.26248169 C-95.31619185 74.55519211 -66.47600974 58.68564894 -41 38 C-40.05382812 37.24460937 -39.10765625 36.48921875 -38.1328125 35.7109375 C-31.89268386 30.6808061 -25.89480416 25.42877942 -20 20 C-19.4004248 19.45085937 -18.80084961 18.90171875 -18.18310547 18.3359375 C-16.18019662 16.49948225 -14.18314225 14.65684719 -12.1875 12.8125 C-11.55295898 12.23024658 -10.91841797 11.64799316 -10.26464844 11.0480957 C-6.52243603 7.57056913 -3.18388495 3.99653368 0 0 Z " fill="#E5E3E3" transform="translate(1046,468)" />
<path d="M0 0 C3.86169572 1.38295561 7.28107471 3.23684694 10.82104492 5.27392578 C34.92479425 19.13075935 60.39474199 27.70569482 87.19555664 34.63354492 C96.37880549 37.01137968 105.4913518 39.53049681 114.5625 42.3125 C115.59544189 42.62574219 116.62838379 42.93898438 117.69262695 43.26171875 C123.68068245 45.12579789 129.31752054 47.36065599 135 50 C136.83098963 50.80575653 138.66308873 51.60899509 140.49609375 52.41015625 C164.39647638 63.01274724 185.65929486 76.27242184 204.47070312 94.52636719 C205.9672383 95.96843077 207.4882136 97.37983183 209.015625 98.7890625 C221.28486641 110.31950658 230.5394613 124.5318552 239 139 C239.45246094 139.7528125 239.90492188 140.505625 240.37109375 141.28125 C243 145.72037197 243 145.72037197 243 148 C242.34 148 241.68 148 241 148 C239.66015625 146.6015625 239.66015625 146.6015625 238.0625 144.625 C218.01851555 121.19910871 188.35019247 106.09024044 159.4375 96.796875 C157.63712483 96.20829081 155.84672398 95.58899206 154.0625 94.953125 C145.86883241 92.08534134 137.60314325 89.81666551 129.1875 87.6875 C119.74513177 85.28971113 110.37960652 82.72289074 101.0625 79.875 C100.02826904 79.56264404 98.99403809 79.25028809 97.9284668 78.9284668 C72.75443362 71.119487 50.25679827 57.8832723 31.45703125 39.41748047 C30.08966653 38.08723255 28.68649862 36.79406985 27.28125 35.50390625 C16.54235777 25.38092107 7.00693091 12.99531047 0 0 Z " fill="#C4C1C1" transform="translate(294,627)" />
<path d="M0 0 C0.99 0.495 0.99 0.495 2 1 C-20.47266014 34.46991936 -46.01306549 59.71282833 -84.05761719 74.81689453 C-99.69611468 80.73083183 -115.78719105 85.19538336 -131.84033203 89.81787109 C-141.81796119 92.70053558 -151.53790967 95.6632086 -161 100 C-162.1653125 100.51175781 -163.330625 101.02351562 -164.53125 101.55078125 C-188.43932482 112.1952997 -211.1490949 127.85024046 -228 148 C-228.33 147.34 -228.66 146.68 -229 146 C-227.9343268 143.62576513 -226.81495401 141.39897101 -225.5625 139.125 C-225.19560059 138.45098145 -224.82870117 137.77696289 -224.45068359 137.08251953 C-215.65691753 121.16802113 -204.496013 107.12176176 -192 94 C-191.34644531 93.29359375 -190.69289063 92.5871875 -190.01953125 91.859375 C-181.27451811 82.68550194 -170.57559216 74.92449487 -160 68 C-159.01 67.3503125 -158.02 66.700625 -157 66.03125 C-138.73389979 54.4180813 -118.65337674 45.38027084 -98 39 C-97.31045227 38.78666016 -96.62090454 38.57332031 -95.91046143 38.35351562 C-88.39427663 36.02933081 -80.87704094 33.70870015 -73.34472656 31.43725586 C-58.82900605 27.04664068 -44.4647973 22.34636409 -30.5625 16.25 C-29.60456543 15.83242432 -28.64663086 15.41484863 -27.65966797 14.98461914 C-12.89732804 8.96644354 -12.89732804 8.96644354 0 0 Z " fill="#DBD9D9" transform="translate(972,627)" />
<path d="M0 0 C3.86169572 1.38295561 7.28107471 3.23684694 10.82104492 5.27392578 C34.92479425 19.13075935 60.39474199 27.70569482 87.19555664 34.63354492 C96.37880549 37.01137968 105.4913518 39.53049681 114.5625 42.3125 C115.59544189 42.62574219 116.62838379 42.93898438 117.69262695 43.26171875 C123.68068245 45.12579789 129.31752054 47.36065599 135 50 C136.83098963 50.80575653 138.66308873 51.60899509 140.49609375 52.41015625 C165.17811924 63.35949648 186.60217686 77.18998969 206 96 C206.52078125 96.495 207.0415625 96.99 207.578125 97.5 C214.9120791 104.47088707 221.17974706 111.71054884 227 120 C226.34 120.66 225.68 121.32 225 122 C224.01 120.35 223.02 118.7 222 117 C221.01 117.99 220.02 118.98 219 120 C218.07960938 119.10539063 217.15921875 118.21078125 216.2109375 117.2890625 C207.94887984 109.35625384 199.56618827 102.29340949 190 96 C189.37512695 95.58266602 188.75025391 95.16533203 188.10644531 94.73535156 C178.17032144 88.13624667 167.92194459 82.77503282 157 78 C155.95199219 77.53980469 154.90398437 77.07960938 153.82421875 76.60546875 C150.89894786 75.35856709 147.9571779 74.16911684 145 73 C143.37964844 72.34644531 143.37964844 72.34644531 141.7265625 71.6796875 C132.99963211 68.27450997 124.14103783 65.4384028 115.1875 62.6875 C111.37723009 61.51240223 107.5671082 60.33682832 103.75732422 59.16015625 C101.32205121 58.4082123 98.8862124 57.65809738 96.44970703 56.91015625 C66.47176352 47.63258382 39.9178622 34.00078873 15 15 C15 15.99 15 16.98 15 18 C16.64429829 19.68873879 18.31384218 21.35305515 20 23 C21.5 25.5 21.5 25.5 23 28 C24.61838719 29.71358643 26.29671681 31.3707726 28 33 C28.72058594 33.74121094 29.44117188 34.48242188 30.18359375 35.24609375 C30.96863281 36.05175781 31.75367188 36.85742188 32.5625 37.6875 C33.67818359 38.83798828 33.67818359 38.83798828 34.81640625 40.01171875 C36.8471612 41.86083193 38.5370472 42.85926397 41 44 C42.35308313 45.31328657 43.68870078 46.64499081 45 48 C45.99 48.495 45.99 48.495 47 49 C47 49.66 47 50.32 47 51 C47.99 51 48.98 51 50 51 C50.33 51.66 50.66 52.32 51 53 C52.97522846 54.04808041 54.97481509 55.0520411 57 56 C57 56.66 57 57.32 57 58 C58.65 58.33 60.3 58.66 62 59 C62 59.66 62 60.32 62 61 C57.33827525 60.48686239 54.19096741 58.39641475 50.5 55.6875 C49.89051514 55.245271 49.28103027 54.80304199 48.65307617 54.34741211 C42.53103428 49.80902479 36.96805807 44.75257683 31.50537109 39.44970703 C30.11417305 38.10995128 28.69303078 36.80147743 27.26953125 35.49609375 C16.53928957 25.36814038 7.00580949 12.99323063 0 0 Z " fill="#EEEDED" transform="translate(294,627)" />
<path d="M0 0 C1.33804687 0.41572266 1.33804687 0.41572266 2.703125 0.83984375 C4.45882813 1.38318359 4.45882813 1.38318359 6.25 1.9375 C7.41015625 2.29714844 8.5703125 2.65679688 9.765625 3.02734375 C12.92083572 3.97619335 16.07417304 4.78177927 19.27978516 5.53735352 C37.28101612 9.78107629 53.77501327 15.26873182 69 26 C69 26.99 69 27.98 69 29 C67.88818359 28.25556641 67.88818359 28.25556641 66.75390625 27.49609375 C52.0302604 17.99871142 36.68371444 13.10882632 19.77172852 8.83984375 C12.33146211 6.95556672 5.14924706 4.7997374 -2 2 C-1.34 1.34 -0.68 0.68 0 0 Z " fill="#9C9998" transform="translate(446,771)" />
<path d="M0 0 C1.734375 0.12109375 1.734375 0.12109375 4 1 C5.60290069 3.00362586 6.92243928 4.88748513 8.25 7.0625 C8.63551025 7.67794678 9.02102051 8.29339355 9.41821289 8.92749023 C14.6765104 17.49652786 19.41534074 26.60195854 23 36 C23.47759766 37.24136719 23.47759766 37.24136719 23.96484375 38.5078125 C26.34920151 44.92355426 28.30700801 51.36911469 30 58 C28.515 57.505 28.515 57.505 27 57 C26.06442631 54.71538942 25.31847881 52.54527046 24.625 50.1875 C24.18671589 48.79979131 23.74527096 47.41307723 23.30078125 46.02734375 C23.08115723 45.33882324 22.8615332 44.65030273 22.63525391 43.94091797 C17.56324235 28.4441878 9.13505113 13.46058858 0 0 Z " fill="#B3B0B0" transform="translate(543,827)" />
<path d="M0 0 C2.475 0.99 2.475 0.99 5 2 C5.061875 2.721875 5.12375 3.44375 5.1875 4.1875 C6.25166056 7.8711327 8.24840839 9.37943656 11 12 C12 13.66666667 13 15.33333333 14 17 C15.61838719 18.71358643 17.29671681 20.3707726 19 22 C19.72058594 22.74121094 20.44117188 23.48242188 21.18359375 24.24609375 C21.96863281 25.05175781 22.75367188 25.85742188 23.5625 26.6875 C24.30628906 27.45449219 25.05007813 28.22148438 25.81640625 29.01171875 C27.8471612 30.86083193 29.5370472 31.85926397 32 33 C33.35308313 34.31328657 34.68870078 35.64499081 36 37 C36.99 37.495 36.99 37.495 38 38 C38 38.66 38 39.32 38 40 C38.99 40 39.98 40 41 40 C41.33 40.66 41.66 41.32 42 42 C43.97522846 43.04808041 45.97481509 44.0520411 48 45 C48 45.66 48 46.32 48 47 C49.65 47.33 51.3 47.66 53 48 C53 48.66 53 49.32 53 50 C48.33827525 49.48686239 45.19096741 47.39641475 41.5 44.6875 C40.89051514 44.245271 40.28103027 43.80304199 39.65307617 43.34741211 C33.54243704 38.81747787 27.9819104 33.77180647 22.52734375 28.48046875 C21.06030396 27.0584532 19.5783201 25.6536671 18.09375 24.25 C13.11778331 19.44176252 8.56582985 14.4483673 4.3125 9 C3.66051636 8.17157593 3.66051636 8.17157593 2.99536133 7.32641602 C1.93598436 5.92841947 0.96091067 4.46742106 0 3 C0 2.01 0 1.02 0 0 Z " fill="#DDDBDC" transform="translate(303,638)" />
<path d="M0 0 C0.66 0 1.32 0 2 0 C2.69222656 1.22009766 2.69222656 1.22009766 3.3984375 2.46484375 C7.27669296 9.27861668 11.20097194 16.06146 15.1875 22.8125 C25 39.4617608 25 39.4617608 25 42 C25.66 42 26.32 42 27 42 C27 43.32 27 44.64 27 46 C29.2236068 44.0745356 29.2236068 44.0745356 30 41 C30.66 41 31.32 41 32 41 C31.67 45.29 31.34 49.58 31 54 C30.34 54 29.68 54 29 54 C28.56469971 53.14341797 28.56469971 53.14341797 28.12060547 52.26953125 C21.66263025 39.6101891 14.92890193 27.18356305 7.63427734 14.984375 C4.72012231 10.08477928 2.07398382 5.31412225 0 0 Z " fill="#B7B4B4" transform="translate(663,905)" />
<path d="M0 0 C1.32 0.66 2.64 1.32 4 2 C3.18208984 2.96486328 3.18208984 2.96486328 2.34765625 3.94921875 C-3.55814198 11.02608125 -8.86011436 18.35700221 -14 26 C-15 23 -15 23 -14.109375 19.671875 C-13.66546969 18.36142399 -13.21195632 17.05419712 -12.75 15.75 C-12.53214844 15.10675781 -12.31429687 14.46351563 -12.08984375 13.80078125 C-10.58932868 9.43963511 -8.85869534 5.22033178 -7 1 C-6.67 1.66 -6.34 2.32 -6 3 C-2.75016865 1.91215032 -2.75016865 1.91215032 0 0 Z " fill="#DBDADA" transform="translate(768,708)" />
<path d="M0 0 C0.66 0.33 1.32 0.66 2 1 C-10.5 23.5 -10.5 23.5 -23 46 C-23.33 46 -23.66 46 -24 46 C-24.33820166 44.4176994 -24.67035939 42.83410625 -25 41.25 C-25.185625 40.36828125 -25.37125 39.4865625 -25.5625 38.578125 C-26 36 -26 36 -26 32 C-25.01 32 -24.02 32 -23 32 C-23 33.98 -23 35.96 -23 38 C-20.06918844 35.42762102 -18.45968425 32.48721332 -16.6015625 29.08203125 C-16.28472504 28.50595627 -15.96788757 27.92988129 -15.64144897 27.33634949 C-14.63107337 25.49769814 -13.62762379 23.65538815 -12.625 21.8125 C-8.59124106 14.42675801 -4.56458114 7.07598196 0 0 Z " fill="#BAB6B6" transform="translate(611,913)" />
<path d="M0 0 C7.41422326 5.74980579 12.43170432 12.84036343 17 21 C17 21.66 17 22.32 17 23 C16.34 23 15.68 23 15 23 C15 22.34 15 21.68 15 21 C14.45730469 20.79117188 13.91460938 20.58234375 13.35546875 20.3671875 C10.11050628 18.48371011 7.80464013 15.87790711 5.3125 13.125 C4.81427734 12.59519531 4.31605469 12.06539062 3.80273438 11.51953125 C1.85929713 9.39414398 0.19911272 7.48865217 -0.89453125 4.8046875 C-1 3 -1 3 0 0 Z " fill="#DCD9D9" transform="translate(515,743)" />
<path d="M0 0 C0.33 0.99 0.66 1.98 1 3 C3.31 2.34 5.62 1.68 8 1 C7.859375 2.6640625 7.859375 2.6640625 7 5 C5.12426146 6.90450754 3.27190887 8.64193526 1.25 10.375 C-2.92511078 13.99752259 -6.55095122 17.66952765 -10 22 C-10.33 21.34 -10.66 20.68 -11 20 C-9.8235912 17.48973374 -8.59568172 15.10465775 -7.25 12.6875 C-6.8890625 12.02298828 -6.528125 11.35847656 -6.15625 10.67382812 C-4.18566284 7.06465491 -2.14490826 3.50923282 0 0 Z " fill="#D7D6D5" transform="translate(754,753)" />
<path d="M0 0 C0.99 0 1.98 0 3 0 C4.15201097 3.06021145 5.29549903 6.12354044 6.4375 9.1875 C6.76298828 10.05181641 7.08847656 10.91613281 7.42382812 11.80664062 C7.73642578 12.64775391 8.04902344 13.48886719 8.37109375 14.35546875 C8.65911865 15.12528076 8.94714355 15.89509277 9.24389648 16.68823242 C10.03501255 19.10705001 10.54902445 21.49737603 11 24 C7.87101104 20.97761668 5.41366658 17.64401621 2.875 14.125 C2.41996094 13.51269531 1.96492187 12.90039062 1.49609375 12.26953125 C-0.94524305 8.88643248 -2.59407545 6.27032623 -3 2 C-2.01 2.33 -1.02 2.66 0 3 C0 2.01 0 1.02 0 0 Z " fill="#D6D5D5" transform="translate(516,712)" />
<path d="M0 0 C6.91663627 1.09890483 13.42736799 2.56569185 20 5 C20 6.65 20 8.3 20 10 C21.32 10.66 22.64 11.32 24 12 C18.79714932 11.42460686 14.76043964 9.70581107 10.125 7.4375 C9.43664062 7.10814453 8.74828125 6.77878906 8.0390625 6.43945312 C6.3561267 5.63304639 4.67759707 4.81745506 3 4 C3 3.34 3 2.68 3 2 C2.01 1.67 1.02 1.34 0 1 C0 0.67 0 0.34 0 0 Z " fill="#EFEEEE" transform="translate(400,738)" />
<path d="M0 0 C0.66 0.33 1.32 0.66 2 1 C0.30398506 5.64124517 -2.02132841 9.85863909 -4.375 14.1875 C-7.67170905 20.31804882 -10.68754379 26.41839386 -13 33 C-13.66 32.67 -14.32 32.34 -15 32 C-14.5020163 28.26512223 -14.12508244 26.18762365 -12 23 C-11.71125 22.09636719 -11.4225 21.19273437 -11.125 20.26171875 C-9.81811506 16.47265999 -8.02706785 13.25337423 -6 9.8125 C-5.64421875 9.19697266 -5.2884375 8.58144531 -4.921875 7.94726562 C-3.35117873 5.2425032 -1.73546969 2.60320454 0 0 Z " fill="#C3C1C0" transform="translate(729,832)" />
<path d="M0 0 C4.28238126 1.32404441 8.13455504 2.97271649 12.10546875 5.046875 C13.25466797 5.645 14.40386719 6.243125 15.58789062 6.859375 C16.78776858 7.4895678 17.98763834 8.11977619 19.1875 8.75 C20.35603516 9.3584375 21.52457031 9.966875 22.72851562 10.59375 C29.86237215 14.31783796 36.95071971 18.11828114 44 22 C43.34 22.66 42.68 23.32 42 24 C40.02 23.01 38.04 22.02 36 21 C36 20.34 36 19.68 36 19 C35.47535156 18.88785156 34.95070313 18.77570312 34.41015625 18.66015625 C22.0849722 15.5224638 10.22846709 8.43093763 0 1 C0 0.67 0 0.34 0 0 Z " fill="#EDEDED" transform="translate(312,540)" />
<path d="M0 0 C0.33 0 0.66 0 1 0 C1 1.98 1 3.96 1 6 C1.66 6.33 2.32 6.66 3 7 C2.51932993 12.57830269 1.60544278 17.61704479 0 23 C-0.71849156 26.32363441 -1.36808495 29.65891723 -2 33 C-2.66 33 -3.32 33 -4 33 C-3.47205656 21.84036797 -1.86486918 11.00155528 0 0 Z M-6 32 C-5.34 32.66 -4.68 33.32 -4 34 C-4.66 34 -5.32 34 -6 34 C-6 33.34 -6 32.68 -6 32 Z " fill="#A19F9F" transform="translate(690,883)" />
<path d="M0 0 C4.9347177 0.59675656 9.17851796 2.11756905 13.6875 4.125 C14.38359375 4.43123291 15.0796875 4.73746582 15.796875 5.05297852 C21.92221532 7.82164926 27.48054968 11.15275603 33 15 C33 15.99 33 16.98 33 18 C32.28199219 17.5153125 31.56398438 17.030625 30.82421875 16.53125 C23.24673786 11.62428853 15.5893438 7.92492629 7.1862793 4.61523438 C6.39777588 4.30134766 5.60927246 3.98746094 4.796875 3.6640625 C4.08885742 3.39029785 3.38083984 3.1165332 2.65136719 2.83447266 C2.10641602 2.55909668 1.56146484 2.2837207 1 2 C0.67 1.34 0.34 0.68 0 0 Z " fill="#ACA9A9" transform="translate(482,782)" />
<path d="M0 0 C5.30589313 1.16470825 7.91905568 3.57897699 11.484375 7.44140625 C12.9357317 9.10513896 12.9357317 9.10513896 15 10 C15 10.66 15 11.32 15 12 C15.99 12 16.98 12 18 12 C22 18.75 22 18.75 22 21 C21.34 21 20.68 21 20 21 C18.66015625 19.6015625 18.66015625 19.6015625 17.0625 17.625 C12.43760757 12.17074923 6.47308634 5.23654317 0 2 C0 1.34 0 0.68 0 0 Z " fill="#C9C7C7" transform="translate(515,754)" />
<path d="M0 0 C1.71875 0.09375 1.71875 0.09375 4 1 C5.67636895 3.14858555 7.09252971 5.18678822 8.5 7.5 C8.89364746 8.13204346 9.28729492 8.76408691 9.69287109 9.4152832 C15.79559013 19.37629093 15.79559013 19.37629093 17 24 C16.67 24.99 16.34 25.98 16 27 C15.43152344 25.97261719 14.86304688 24.94523438 14.27734375 23.88671875 C9.75437373 15.75500651 5.12187089 7.77338604 0 0 Z " fill="#B3B0B0" transform="translate(543,827)" />
<path d="M0 0 C2.77624569 0.37883034 4.02717092 1.0229613 6.19824219 2.85766602 C6.97329102 3.64842529 7.74833984 4.43918457 8.546875 5.25390625 C9.39121094 6.10791016 10.23554688 6.96191406 11.10546875 7.84179688 C11.97816406 8.73962891 12.85085938 9.63746094 13.75 10.5625 C15.08224609 11.91504883 15.08224609 11.91504883 16.44140625 13.29492188 C18.63448315 15.52337098 20.82026044 17.75851593 23 20 C22.67 20.99 22.34 21.98 22 23 C18.8636964 19.88834095 15.73063335 16.77346679 12.60058594 13.65551758 C11.53442344 12.59439642 10.46736689 11.5341728 9.39941406 10.47485352 C7.86810398 8.95561777 6.3399957 7.43322584 4.8125 5.91015625 C3.89082031 4.99371338 2.96914063 4.07727051 2.01953125 3.13305664 C1.35308594 2.42914795 0.68664062 1.72523926 0 1 C0 0.67 0 0.34 0 0 Z " fill="#EEEEEE" transform="translate(267,370)" />
<path d="M0 0 C0.66 0.33 1.32 0.66 2 1 C-1.63 6.28 -5.26 11.56 -9 17 C-9.99 17 -10.98 17 -12 17 C-11.29020539 15.31001284 -10.57684557 13.62141692 -9.84375 11.94140625 C-9.10453212 10.24052067 -8.39362973 8.52738648 -7.6875 6.8125 C-5.64668608 3.41114347 -3.40094727 1.96499176 0 0 Z " fill="#E0E0E0" transform="translate(972,627)" />
<path d="M0 0 C0.99 0.33 1.98 0.66 3 1 C-4.2970369 7.70775728 -11.61803154 14.3856256 -19 21 C-19.66 20.34 -20.32 19.68 -21 19 C-18.25316507 16.3924778 -15.50198763 13.78958261 -12.75 11.1875 C-11.97269531 10.44951172 -11.19539062 9.71152344 -10.39453125 8.95117188 C-9.64042969 8.23896484 -8.88632812 7.52675781 -8.109375 6.79296875 C-7.41811523 6.1383667 -6.72685547 5.48376465 -6.01464844 4.80932617 C-4.0854957 3.07678243 -2.09867073 1.52050752 0 0 Z " fill="#E7E6E6" transform="translate(953,417)" />
<path d="M0 0 C8.9233367 7.21461265 16.12709833 15.85086401 23 25 C22.67 25.99 22.34 26.98 22 28 C21.4225 27.0925 20.845 26.185 20.25 25.25 C18.30569931 22.44156566 16.43220154 20.35849846 14 18 C13.195625 17.030625 12.39125 16.06125 11.5625 15.0625 C9.08300605 12.00737832 9.08300605 12.00737832 6.4375 9.4375 C4.0735162 7.0735162 1.97041954 4.70020456 0 2 C0 1.34 0 0.68 0 0 Z " fill="#E4E4E4" transform="translate(473,547)" />
<path d="M0 0 C1.55152854 2.81965464 2.35472271 5.2267506 2.81640625 8.40625 C3.00299805 9.64568359 3.00299805 9.64568359 3.19335938 10.91015625 C3.31517578 11.76480469 3.43699219 12.61945312 3.5625 13.5 C3.81222778 15.19814893 4.06347652 16.89607503 4.31640625 18.59375 C4.42412354 19.34333984 4.53184082 20.09292969 4.64282227 20.86523438 C4.99114037 22.9470481 5.4592463 24.96055304 6 27 C5.01 27 4.02 27 3 27 C2.49219106 24.79344925 1.99408635 22.58466395 1.5 20.375 C1.2215625 19.14523437 0.943125 17.91546875 0.65625 16.6484375 C0.05791583 13.32198443 -0.07368679 10.36503014 0 7 C-0.185625 6.278125 -0.37125 5.55625 -0.5625 4.8125 C-1 3 -1 3 0 0 Z " fill="#ADABAA" transform="translate(590,889)" />
<path d="M0 0 C0.99 0 1.98 0 3 0 C4.10807886 3.61972427 4.98993884 6.92579897 5.5 10.6875 C5.8059272 13.86911167 5.8059272 13.86911167 7 16 C8.44617986 18.89235972 8.63238794 21.81402884 9 25 C8.01 25 7.02 25 6 25 C5.73445312 23.865625 5.46890625 22.73125 5.1953125 21.5625 C4.83857214 20.04165952 4.48179958 18.52082659 4.125 17 C3.95097656 16.25621094 3.77695312 15.51242187 3.59765625 14.74609375 C2.44097218 9.81947641 1.23786742 4.90686184 0 0 Z " fill="#B0AEAD" transform="translate(571,886)" />
<path d="M0 0 C0.99 0.66 1.98 1.32 3 2 C2.03320312 2.30292969 1.06640625 2.60585938 0.0703125 2.91796875 C-6.97099 5.16904771 -13.62492395 7.53283129 -20.14453125 11.08203125 C-22 12 -22 12 -24 12 C-24 11.34 -24 10.68 -24 10 C-8.03773585 1.50943396 -8.03773585 1.50943396 0 0 Z " fill="#B3B0AF" transform="translate(799,779)" />
<path d="M0 0 C0.66 0.66 1.32 1.32 2 2 C-0.31 6.29 -2.62 10.58 -5 15 C-5.33 15 -5.66 15 -6 15 C-6.33820166 13.4176994 -6.67035939 11.83410625 -7 10.25 C-7.185625 9.36828125 -7.37125 8.4865625 -7.5625 7.578125 C-8 5 -8 5 -8 1 C-7.01 1 -6.02 1 -5 1 C-5 2.98 -5 4.96 -5 7 C-2.65941363 4.87219421 -1.29299694 2.88437779 0 0 Z " fill="#B9B6B6" transform="translate(593,944)" />
<path d="M0 0 C0.66 0.66 1.32 1.32 2 2 C-1.96 5.96 -5.92 9.92 -10 14 C-11.32 13.67 -12.64 13.34 -14 13 C-12.41984377 11.39270369 -10.83574348 9.78928424 -9.25 8.1875 C-8.36828125 7.29417969 -7.4865625 6.40085937 -6.578125 5.48046875 C-4.46551149 3.44787848 -2.39205335 1.68226182 0 0 Z " fill="#161617" transform="translate(761,757)" />
<path d="M0 0 C1.27310312 0.93441535 2.543388 1.87267111 3.8125 2.8125 C4.52019531 3.33457031 5.22789062 3.85664063 5.95703125 4.39453125 C8 6 8 6 9.6328125 7.63671875 C10.98096706 9.12935649 10.98096706 9.12935649 13.0625 10 C15 11 15 11 17 14 C19.05003955 15.19232613 19.05003955 15.19232613 21 16 C20.67 16.99 20.34 17.98 20 19 C14.88812463 15.36270406 10.14375606 11.45900679 5.5 7.25 C4.68934082 6.5242981 4.68934082 6.5242981 3.86230469 5.78393555 C2.53427645 4.56543762 1.26176024 3.28699545 0 2 C0 1.34 0 0.68 0 0 Z " fill="#D9D7D7" transform="translate(288,467)" />
<path d="M0 0 C0.99 0.33 1.98 0.66 3 1 C-1.95 5.95 -6.9 10.9 -12 16 C-12.66 15.34 -13.32 14.68 -14 14 C-9.38 9.38 -4.76 4.76 0 0 Z " fill="#EAE9EA" transform="translate(825,527)" />
<path d="M0 0 C0.66 0.33 1.32 0.66 2 1 C0.43632643 4.52238047 -1.69495889 7.27123994 -4.125 10.25 C-4.84945312 11.14203125 -5.57390625 12.0340625 -6.3203125 12.953125 C-6.87460937 13.62859375 -7.42890625 14.3040625 -8 15 C-8.66 14.67 -9.32 14.34 -10 14 C-8.43632643 10.47761953 -6.30504111 7.72876006 -3.875 4.75 C-3.15054688 3.85796875 -2.42609375 2.9659375 -1.6796875 2.046875 C-0.84824219 1.03367187 -0.84824219 1.03367187 0 0 Z " fill="#C2C0C0" transform="translate(743,791)" />
<path d="M0 0 C4.72224516 1.53472968 9.35855331 3.23945126 14 5 C14 5.66 14 6.32 14 7 C14.78375 7.144375 15.5675 7.28875 16.375 7.4375 C19 8 19 8 21 9 C21 9.66 21 10.32 21 11 C13.83329156 8.88523358 7.31024892 6.04532029 1 2 C0.67 1.34 0.34 0.68 0 0 Z " fill="#CDCBCB" transform="translate(357,689)" />
<path d="M0 0 C0.66 0.33 1.32 0.66 2 1 C1.80664062 1.6290625 1.61328125 2.258125 1.4140625 2.90625 C-0.2092125 8.24216385 -1.69460565 13.57759268 -3 19 C-3.33 18.34 -3.66 17.68 -4 17 C-4.66 16.67 -5.32 16.34 -6 16 C-5.19110952 13.51960151 -4.37808099 11.04069788 -3.5625 8.5625 C-3.33240234 7.85544922 -3.10230469 7.14839844 -2.86523438 6.41992188 C-1.11328125 1.11328125 -1.11328125 1.11328125 0 0 Z " fill="#C1BEBD" transform="translate(713,865)" />
<path d="M0 0 C0.66 0.33 1.32 0.66 2 1 C-0.64 3.97 -3.28 6.94 -6 10 C-6.66 9.67 -7.32 9.34 -8 9 C-7.67 7.35 -7.34 5.7 -7 4 C-7.66 3.67 -8.32 3.34 -9 3 C-7.54494642 2.47007308 -6.08581873 1.9513211 -4.625 1.4375 C-3.81289063 1.14746094 -3.00078125 0.85742188 -2.1640625 0.55859375 C-1.44992187 0.37425781 -0.73578125 0.18992187 0 0 Z " fill="#D1D0D0" transform="translate(875,735)" />
<path d="M0 0 C0.66 0 1.32 0 2 0 C2.18175781 1.08667969 2.18175781 1.08667969 2.3671875 2.1953125 C3.09563371 6.39788679 3.79212681 10.39826182 5.1875 14.4375 C6 17 6 17 5.625 19.375 C5.41875 19.91125 5.2125 20.4475 5 21 C5 20.01 5 19.02 5 18 C4.34 18 3.68 18 3 18 C2.49309416 15.93918639 1.99475381 13.87626474 1.5 11.8125 C1.2215625 10.66394531 0.943125 9.51539063 0.65625 8.33203125 C0.08504615 5.43181171 -0.13283779 2.93903615 0 0 Z " fill="#D8D6D6" transform="translate(559,723)" />
<path d="M0 0 C0.66 0.33 1.32 0.66 2 1 C2.99 0.67 3.98 0.34 5 0 C4.34215037 3.29680965 3.10579427 5.84117922 1.4375 8.75 C0.75494141 9.94882812 0.75494141 9.94882812 0.05859375 11.171875 C-0.29074219 11.77515625 -0.64007812 12.3784375 -1 13 C-2.07310858 9.72814447 -1.89263102 7.57052408 -1.0625 4.25 C-0.86785156 3.45078125 -0.67320312 2.6515625 -0.47265625 1.828125 C-0.31667969 1.22484375 -0.16070313 0.6215625 0 0 Z " fill="#292828" transform="translate(723,810)" />
<path d="M0 0 C3.04332765 1.3584202 5.12309151 2.88463024 7.453125 5.2578125 C8.071875 5.88300781 8.690625 6.50820313 9.328125 7.15234375 C9.96234375 7.80332031 10.5965625 8.45429687 11.25 9.125 C11.8996875 9.78371094 12.549375 10.44242188 13.21875 11.12109375 C14.81711727 12.74296643 16.41061897 14.3693281 18 16 C17.67 16.66 17.34 17.32 17 18 C15.8274869 17.04882866 14.66212985 16.08882991 13.5 15.125 C12.8503125 14.59132813 12.200625 14.05765625 11.53125 13.5078125 C11.0259375 13.01023437 10.520625 12.51265625 10 12 C10 11.34 10 10.68 10 10 C9.4225 9.773125 8.845 9.54625 8.25 9.3125 C5.43572387 7.67083893 3.97262267 5.56440947 2 3 C1.34 2.67 0.68 2.34 0 2 C0 1.34 0 0.68 0 0 Z " fill="#EAEAEA" transform="translate(460,631)" />
<path d="M0 0 C2.6486859 3.19668988 4.93992341 6.39486597 7 10 C6.67 10.66 6.34 11.32 6 12 C5.01 11.67 4.02 11.34 3 11 C2.34 11.99 1.68 12.98 1 14 C0.04738513 9.23692563 -0.08333357 4.8333472 0 0 Z " fill="#EEEDEE" transform="translate(201,280)" />
<path d="M0 0 C0.99 0.33 1.98 0.66 3 1 C2.03644647 11.55808656 2.03644647 11.55808656 1 16 C-0.515625 14.8125 -0.515625 14.8125 -2 13 C-2.109375 10.625 -2.109375 10.625 -1.75 8 C-1.64171875 7.13375 -1.5334375 6.2675 -1.421875 5.375 C-1 3 -1 3 0 0 Z " fill="#C3C1C1" transform="translate(706,792)" />
<path d="M0 0 C0.33 0.66 0.66 1.32 1 2 C1.66 2 2.32 2 3 2 C1.75696561 7.17930997 0.14512215 10.70166639 -3 15 C-4 12 -4 12 -3.22265625 9.08203125 C-2.83980469 8.00308594 -2.45695313 6.92414062 -2.0625 5.8125 C-1.68222656 4.72582031 -1.30195312 3.63914062 -0.91015625 2.51953125 C-0.60980469 1.68808594 -0.30945313 0.85664062 0 0 Z " fill="#D2D1D1" transform="translate(757,719)" />
<path d="M0 0 C1.91302307 3.26613695 2.35674661 5.99445248 2.625 9.75 C2.69976563 10.73484375 2.77453125 11.7196875 2.8515625 12.734375 C2.92503906 13.85585938 2.92503906 13.85585938 3 15 C0.44988427 12.53584323 -1.40174361 10.19651277 -3 7 C-2.1654738 4.49642139 -1.20628008 2.33214148 0 0 Z " fill="#252425" transform="translate(555,807)" />
<path d="M0 0 C1.32 0 2.64 0 4 0 C5.60938465 2.41407698 6.65490738 4.34044437 7.6875 7 C7.95949219 7.680625 8.23148438 8.36125 8.51171875 9.0625 C9 11 9 11 8 14 C6.66101601 12.04532248 5.32870953 10.0866421 4 8.125 C3.2575 7.03445313 2.515 5.94390625 1.75 4.8203125 C0 2 0 2 0 0 Z " fill="#C6C6C5" transform="translate(518,722)" />
<path d="M0 0 C0.99 0.33 1.98 0.66 3 1 C3.33 1.66 3.66 2.32 4 3 C4.99 3.33 5.98 3.66 7 4 C7 4.66 7 5.32 7 6 C8.32 6.33 9.64 6.66 11 7 C11.33 7.99 11.66 8.98 12 10 C12.99 10.33 13.98 10.66 15 11 C14.01 11.33 13.02 11.66 12 12 C9.3359375 10.48828125 9.3359375 10.48828125 6.375 8.3125 C5.39273437 7.60738281 4.41046875 6.90226562 3.3984375 6.17578125 C1 4 1 4 0.1640625 1.73046875 C0.10992187 1.15941406 0.05578125 0.58835937 0 0 Z " fill="#D2D0D0" transform="translate(319,492)" />
<path d="M0 0 C7.58954531 0.44644384 14.01639737 3.11500562 21 6 C17.72463268 7.09178911 16.95586381 6.93042848 13.76953125 6.00390625 C12.96708984 5.77509766 12.16464844 5.54628906 11.33789062 5.31054688 C10.50451172 5.06369141 9.67113281 4.81683594 8.8125 4.5625 C7.96751953 4.31951172 7.12253906 4.07652344 6.25195312 3.82617188 C4.1657589 3.22506507 2.08257699 2.61352166 0 2 C0 1.34 0 0.68 0 0 Z " fill="#E9E7E7" transform="translate(468,763)" />
<path d="M0 0 C1.75128818 0.28382946 3.50100003 0.57739529 5.25 0.875 C6.71179688 1.11863281 6.71179688 1.11863281 8.203125 1.3671875 C10.77264117 1.94855848 12.72071056 2.70840265 15 4 C11.8125 5.125 11.8125 5.125 8 6 C5.0625 5.125 5.0625 5.125 3 4 C3 3.34 3 2.68 3 2 C2.01 1.67 1.02 1.34 0 1 C0 0.67 0 0.34 0 0 Z " fill="#E9E9E9" transform="translate(400,738)" />
<path d="M0 0 C2.31 0.66 4.62 1.32 7 2 C6.67 2.66 6.34 3.32 6 4 C6.66 4.33 7.32 4.66 8 5 C8 5.66 8 6.32 8 7 C9.32 7.33 10.64 7.66 12 8 C11.67 8.99 11.34 9.98 11 11 C6.81402577 8.37159758 3.32705097 5.71846873 0 2 C0 1.34 0 0.68 0 0 Z " fill="#C6C6C5" transform="translate(395,735)" />
<path d="M0 0 C3 1 3 1 4.16796875 2.55859375 C7 7.77777778 7 7.77777778 7 10 C6.34 10 5.68 10 5 10 C5 9.34 5 8.68 5 8 C4.401875 7.7525 3.80375 7.505 3.1875 7.25 C0.71352479 5.83629988 -0.43370255 4.34944617 -2 2 C-1.34 1.34 -0.68 0.68 0 0 Z " fill="#D4D2D2" transform="translate(525,756)" />
<path d="M0 0 C3.72390287 2.36975637 7.09634199 4.64962537 10 8 C10 8.66 10 9.32 10 10 C10.66 10.33 11.32 10.66 12 11 C11.01 11.33 10.02 11.66 9 12 C8.52949219 11.45730469 8.05898438 10.91460938 7.57421875 10.35546875 C6.95160156 9.64003906 6.32898438 8.92460938 5.6875 8.1875 C5.07261719 7.47980469 4.45773437 6.77210938 3.82421875 6.04296875 C2.26665665 4.29863261 0.67341125 2.63221959 -1 1 C-0.67 0.67 -0.34 0.34 0 0 Z " fill="#B1AFAF" transform="translate(525,805)" />
<path d="M0 0 C0.66 0.66 1.32 1.32 2 2 C2.29231304 3.9812328 2.57802379 5.96468855 2.78125 7.95703125 C3.03655053 10.34135588 3.48780284 12.65852727 4 15 C3.01 14.67 2.02 14.34 1 14 C0.63906896 11.85529407 0.28642411 9.70919203 -0.0625 7.5625 C-0.25972656 6.36753906 -0.45695313 5.17257812 -0.66015625 3.94140625 C-0.77230469 2.97074219 -0.88445313 2.00007812 -1 1 C-0.67 0.67 -0.34 0.34 0 0 Z " fill="#A9A6A6" transform="translate(583,929)" />
<path d="M0 0 C2.836543 3.37683691 4.54128372 6.84265861 6 11 C5.6875 13.9375 5.6875 13.9375 5 16 C3.46325727 13.00995759 2.09693707 9.98176115 0.8125 6.875 C0.44769531 6.00617187 0.08289063 5.13734375 -0.29296875 4.2421875 C-0.52628906 3.50226562 -0.75960937 2.76234375 -1 2 C-0.67 1.34 -0.34 0.68 0 0 Z " fill="#AAA6A6" transform="translate(560,852)" />
<path d="M0 0 C0.66 0.99 1.32 1.98 2 3 C0.35 5.97 -1.3 8.94 -3 12 C-3.99 11.67 -4.98 11.34 -6 11 C-4.54955729 6.89041233 -2.48889248 3.56741255 0 0 Z " fill="#C2C0C0" transform="translate(732,805)" />
<path d="M0 0 C0.66 0 1.32 0 2 0 C2.33 1.98 2.66 3.96 3 6 C2.01 6 1.02 6 0 6 C0.66 6.66 1.32 7.32 2 8 C1.6875 10.375 1.6875 10.375 1 13 C-0.485 13.99 -0.485 13.99 -2 15 C-1.03644647 4.44191344 -1.03644647 4.44191344 0 0 Z " fill="#BEBCBC" transform="translate(709,773)" />
<path d="M0 0 C0.66 0 1.32 0 2 0 C2 0.66 2 1.32 2 2 C2.66 2.33 3.32 2.66 4 3 C1.36 5.97 -1.28 8.94 -4 12 C-4.33 11.34 -4.66 10.68 -5 10 C-4.00390625 7.6171875 -4.00390625 7.6171875 -2.5625 4.875 C-1.85287109 3.50988281 -1.85287109 3.50988281 -1.12890625 2.1171875 C-0.75636719 1.41851563 -0.38382813 0.71984375 0 0 Z " fill="#C4C3C3" transform="translate(748,763)" />
<path d="M0 0 C0.33 0.66 0.66 1.32 1 2 C-0.91166247 2.5590711 -2.82961576 3.09666462 -4.75 3.625 C-5.81734375 3.92664063 -6.8846875 4.22828125 -7.984375 4.5390625 C-11 5 -11 5 -13.390625 4.0859375 C-13.92171875 3.72757813 -14.4528125 3.36921875 -15 3 C-13.44033782 2.491217 -11.87710759 1.99336531 -10.3125 1.5 C-9.44238281 1.2215625 -8.57226562 0.943125 -7.67578125 0.65625 C-5.00608323 0.00149195 -2.73603316 -0.11831495 0 0 Z " fill="#C3C1C0" transform="translate(859,709)" />
<path d="M0 0 C3.45925163 1.2491742 6.14693203 2.67527795 9 5 C8.67 6.98 8.34 8.96 8 11 C4.32966073 7.72291137 2.30718811 4.28477792 0 0 Z " fill="#DFDEDE" transform="translate(294,627)" />
<path d="M0 0 C0.99 0.33 1.98 0.66 3 1 C4.421875 3.3984375 4.421875 3.3984375 5.75 6.375 C6.19859375 7.35210938 6.6471875 8.32921875 7.109375 9.3359375 C7.40328125 10.21507812 7.6971875 11.09421875 8 12 C7.67 12.99 7.34 13.98 7 15 C5.82823482 12.87767021 4.66245215 10.75242209 3.5 8.625 C2.99919922 7.72007812 2.99919922 7.72007812 2.48828125 6.796875 C0 2.2265625 0 2.2265625 0 0 Z " fill="#B6B4B4" transform="translate(552,839)" />
<path d="M0 0 C5.23880078 0.55145271 9.97350697 1.42922093 15 3 C15.33 3.99 15.66 4.98 16 6 C11.71 5.01 7.42 4.02 3 3 C3 2.34 3 1.68 3 1 C2.01 0.67 1.02 0.34 0 0 Z " fill="#9E9C9B" transform="translate(467,778)" />
<path d="M0 0 C2.38146072 3.57219108 3.35128536 6.77924908 4 11 C3.625 14 3.625 14 3 16 C0.30717525 11.96076287 -0.13300939 9.04463848 -0.0625 4.25 C-0.05347656 3.45078125 -0.04445313 2.6515625 -0.03515625 1.828125 C-0.02355469 1.22484375 -0.01195312 0.6215625 0 0 Z " fill="#BEBEBD" transform="translate(552,690)" />
<path d="M0 0 C0.33 0.99 0.66 1.98 1 3 C-0.66666667 4.66666667 -2.33333333 6.33333333 -4 8 C-4.86625 8.928125 -5.7325 9.85625 -6.625 10.8125 C-7.40875 11.534375 -8.1925 12.25625 -9 13 C-9.99 13 -10.98 13 -12 13 C-8.04 8.71 -4.08 4.42 0 0 Z " fill="#181819" transform="translate(807,604)" />
<path d="M0 0 C0.66 0.99 1.32 1.98 2 3 C1.7578125 5.48046875 1.7578125 5.48046875 1.125 8.1875 C0.92132812 9.08855469 0.71765625 9.98960937 0.5078125 10.91796875 C0.25644531 11.94857422 0.25644531 11.94857422 0 13 C-0.66 13 -1.32 13 -2 13 C-2.19294408 8.17639811 -1.75747614 4.50353262 0 0 Z M-4 12 C-3.34 12.66 -2.68 13.32 -2 14 C-2.66 14 -3.32 14 -4 14 C-4 13.34 -4 12.68 -4 12 Z " fill="#BBB9B8" transform="translate(688,903)" />
<path d="M0 0 C0.99 0.33 1.98 0.66 3 1 C-0.02272532 4.25524265 -3.25718301 6.61820737 -7 9 C-7.33 8.01 -7.66 7.02 -8 6 C-5.36 4.02 -2.72 2.04 0 0 Z " fill="#C0BEBC" transform="translate(771,746)" />
<path d="M0 0 C0.53109375 0.22558594 1.0621875 0.45117188 1.609375 0.68359375 C-0.29943934 1.71903549 -2.21801704 2.7364946 -4.140625 3.74609375 C-5.20796875 4.31457031 -6.2753125 4.88304687 -7.375 5.46875 C-10.390625 6.68359375 -10.390625 6.68359375 -12.78125 6.3671875 C-13.31234375 6.14160156 -13.8434375 5.91601562 -14.390625 5.68359375 C-12.48181066 4.64815201 -10.56323296 3.6306929 -8.640625 2.62109375 C-7.03960938 1.76837891 -7.03960938 1.76837891 -5.40625 0.8984375 C-2.390625 -0.31640625 -2.390625 -0.31640625 0 0 Z " fill="#E4E3E3" transform="translate(843.390625,679.31640625)" />
<path d="M0 0 C0.66 0.33 1.32 0.66 2 1 C-3.79310345 8.24137931 -3.79310345 8.24137931 -7 10 C-9.12109375 9.56640625 -9.12109375 9.56640625 -11 9 C-9.93458984 8.15115234 -9.93458984 8.15115234 -8.84765625 7.28515625 C-7.92855469 6.55167969 -7.00945313 5.81820312 -6.0625 5.0625 C-5.14597656 4.33160156 -4.22945312 3.60070312 -3.28515625 2.84765625 C-1.59148731 1.48061289 -1.59148731 1.48061289 0 0 Z " fill="#181818" transform="translate(975,578)" />
<path d="M0 0 C0.66 0 1.32 0 2 0 C0.61735163 2.86867231 -0.92148553 5.56024032 -2.625 8.25 C-3.07101562 8.95640625 -3.51703125 9.6628125 -3.9765625 10.390625 C-4.31429687 10.92171875 -4.65203125 11.4528125 -5 12 C-5.99 11.67 -6.98 11.34 -8 11 C-6.85539001 9.35331565 -5.70927742 7.70767566 -4.5625 6.0625 C-3.92441406 5.14597656 -3.28632812 4.22945312 -2.62890625 3.28515625 C-1 1 -1 1 0 0 Z " fill="#E6E6E6" transform="translate(781,577)" />
<path d="M0 0 C3.59634744 3.49359465 6.83451967 7.11098131 10 11 C9.01 11 8.02 11 7 11 C4.95703125 9.03125 4.95703125 9.03125 2.8125 6.5 C2.09707031 5.6646875 1.38164062 4.829375 0.64453125 3.96875 C0.10183594 3.3190625 -0.44085938 2.669375 -1 2 C-0.67 1.34 -0.34 0.68 0 0 Z " fill="#191818" transform="translate(259,546)" />
<path d="M0 0 C0.33 0.66 0.66 1.32 1 2 C0.29296875 4.34765625 0.29296875 4.34765625 -0.8125 7.0625 C-1.16957031 7.96097656 -1.52664063 8.85945313 -1.89453125 9.78515625 C-2.25933594 10.51605469 -2.62414063 11.24695313 -3 12 C-3.99 12.495 -3.99 12.495 -5 13 C-5.3125 9.875 -5.3125 9.875 -5 6 C-3.55217829 3.65808489 -1.94165415 1.99019551 0 0 Z " fill="#DDDDDD" transform="translate(1046,468)" />
<path d="M0 0 C0.33 0.66 0.66 1.32 1 2 C0.06558465 3.27310312 -0.87267111 4.543388 -1.8125 5.8125 C-2.33457031 6.52019531 -2.85664062 7.22789062 -3.39453125 7.95703125 C-4.84252498 9.79961207 -6.23101505 11.46364869 -8 13 C-8.66 13 -9.32 13 -10 13 C-8.48446596 9.52224821 -6.4226544 7.0442016 -3.875 4.25 C-3.15054688 3.45078125 -2.42609375 2.6515625 -1.6796875 1.828125 C-0.84824219 0.92320312 -0.84824219 0.92320312 0 0 Z " fill="#1A1A1A" transform="translate(782,697)" />
<path d="M0 0 C0.33 0 0.66 0 1 0 C2.33257403 9.41002278 2.33257403 9.41002278 1 14 C0.01 14 -0.98 14 -2 14 C-1.85795259 12.41632253 -1.71119847 10.83306682 -1.5625 9.25 C-1.48128906 8.36828125 -1.40007813 7.4865625 -1.31640625 6.578125 C-1.03761535 4.30649548 -0.61209423 2.20148177 0 0 Z " fill="#CDCBCA" transform="translate(726,778)" />
<path d="M0 0 C7.48291572 6.15034169 7.48291572 6.15034169 10 10 C9.01 10 8.02 10 7 10 C4.95703125 8.25 4.95703125 8.25 2.8125 6 C2.09707031 5.2575 1.38164062 4.515 0.64453125 3.75 C0.10183594 3.1725 -0.44085938 2.595 -1 2 C-0.67 1.34 -0.34 0.68 0 0 Z " fill="#131313" transform="translate(468,603)" />
<path d="M0 0 C0.66 0.66 1.32 1.32 2 2 C1.01 2.33 0.02 2.66 -1 3 C-1 3.99 -1 4.98 -1 6 C-1.66 6 -2.32 6 -3 6 C-3.226875 6.61875 -3.45375 7.2375 -3.6875 7.875 C-5 10 -5 10 -7.625 11.25 C-8.40875 11.4975 -9.1925 11.745 -10 12 C-9.61328125 11.55269531 -9.2265625 11.10539063 -8.828125 10.64453125 C-5.81609925 7.1478974 -2.85678969 3.62592537 0 0 Z " fill="#191919" transform="translate(1005,548)" />
<path d="M0 0 C0.33 0 0.66 0 1 0 C1.36463732 1.74784829 1.7163078 3.49840502 2.0625 5.25 C2.25972656 6.22453125 2.45695313 7.1990625 2.66015625 8.203125 C2.98397535 10.868119 2.85503199 12.48871723 2 15 C0 13 0 13 -0.6875 9.1875 C-1.03249514 5.92194251 -0.89745619 3.19095533 0 0 Z " fill="#CDCACA" transform="translate(556,798)" />
<path d="M0 0 C5.05255964 0.63156995 9.29593201 2.13459373 14 4 C13.67 4.66 13.34 5.32 13 6 C11.39253944 5.57476184 9.78910164 5.13429874 8.1875 4.6875 C7.29417969 4.44386719 6.40085937 4.20023438 5.48046875 3.94921875 C2.94752262 2.9799181 1.7283504 2.04990396 0 0 Z " fill="#A6A3A2" transform="translate(482,782)" />
<path d="M0 0 C0.66 0 1.32 0 2 0 C2.625 2.25 2.625 2.25 3 5 C2.0625 7.3125 2.0625 7.3125 1 9 C0.34 8.67 -0.32 8.34 -1 8 C-1.33 8.99 -1.66 9.98 -2 11 C-1 3.57142857 -1 3.57142857 0 0 Z " fill="#C0BEBE" transform="translate(723,707)" />
<path d="M0 0 C0 0.99 0 1.98 0 3 C-4.455 5.97 -4.455 5.97 -9 9 C-9 8.01 -9 7.02 -9 6 C-6.06973918 3.2650899 -3.82272915 1.27424305 0 0 Z " fill="#E2E1E1" transform="translate(800,705)" />
<path d="M0 0 C0.66 0 1.32 0 2 0 C4.31 3.96 6.62 7.92 9 12 C8.34 12.66 7.68 13.32 7 14 C4.69 9.38 2.38 4.76 0 0 Z " fill="#ADAAAB" transform="translate(663,905)" />
<path d="M0 0 C0.66 0.99 1.32 1.98 2 3 C0.35 5.97 -1.3 8.94 -3 12 C-3.66 11.67 -4.32 11.34 -5 11 C-3.55049545 7.2089881 -1.84827434 3.6125362 0 0 Z " fill="#BFBDBE" transform="translate(601,904)" />
<path d="M0 0 C6.28260706 -0.23268915 11.88019467 0.59545452 18 2 C18 2.33 18 2.66 18 3 C9.62790698 4.25581395 9.62790698 4.25581395 6 3 C5.34 3 4.68 3 4 3 C4 2.34 4 1.68 4 1 C2.68 0.67 1.36 0.34 0 0 Z " fill="#9E9E9D" transform="translate(445,747)" />
<path d="M0 0 C2.64465038 3.1254959 3.84414715 6.08788267 5 10 C4.01 10 3.02 10 2 10 C0.4375 7.25 0.4375 7.25 -1 4 C-0.6875 1.625 -0.6875 1.625 0 0 Z " fill="#D7D5D5" transform="translate(519,670)" />
<path d="M0 0 C0.66 0.33 1.32 0.66 2 1 C-0.97 4.63 -3.94 8.26 -7 12 C-7.66 11.34 -8.32 10.68 -9 10 C-6.03 6.7 -3.06 3.4 0 0 Z " fill="#EDEDEE" transform="translate(1024,344)" />
<path d="M0 0 C0.66 0 1.32 0 2 0 C2.36463732 1.74784829 2.7163078 3.49840502 3.0625 5.25 C3.25972656 6.22453125 3.45695313 7.1990625 3.66015625 8.203125 C3.98397535 10.868119 3.85503199 12.48871723 3 15 C3 14.34 3 13.68 3 13 C2.34 13 1.68 13 1 13 C0.67 8.71 0.34 4.42 0 0 Z " fill="#CAC8C7" transform="translate(575,807)" />
<path d="M0 0 C3.96 1.32 7.92 2.64 12 4 C12 4.33 12 4.66 12 5 C7.02906176 4.58846263 2.55491614 4.20399168 -2 2 C-1.34 1.34 -0.68 0.68 0 0 Z " fill="#B6B4B4" transform="translate(446,771)" />
<path d="M0 0 C6.88888889 -0.44444444 6.88888889 -0.44444444 10.5 1 C10.995 1.33 11.49 1.66 12 2 C11.67 2.33 11.34 2.66 11 3 C9.00041636 3.04080783 6.99954746 3.04254356 5 3 C5 2.34 5 1.68 5 1 C2.69 1.33 0.38 1.66 -2 2 C-1.34 1.34 -0.68 0.68 0 0 Z " fill="#F0EFEF" transform="translate(437,747)" />
<path d="M0 0 C0.66 0 1.32 0 2 0 C2 0.66 2 1.32 2 2 C2.598125 2.103125 3.19625 2.20625 3.8125 2.3125 C6.28243264 3.08876455 7.32251235 4.07088921 9 6 C8.01 6.33 7.02 6.66 6 7 C3.95703125 6.00390625 3.95703125 6.00390625 1.8125 4.5625 C1.09707031 4.08941406 0.38164062 3.61632812 -0.35546875 3.12890625 C-0.89816406 2.75636719 -1.44085938 2.38382813 -2 2 C-1.34 1.34 -0.68 0.68 0 0 Z " fill="#C3C1C1" transform="translate(364,524)" />
<path d="M0 0 C1.32 1.65 2.64 3.3 4 5 C3.67 5.99 3.34 6.98 3 8 C2.01 7.01 1.02 6.02 0 5 C-0.99 5.99 -1.98 6.98 -3 8 C-2.73775349 5.98944339 -2.39764263 3.98821313 -2 2 C-1.34 1.34 -0.68 0.68 0 0 Z " fill="#E4E4E4" transform="translate(640,835)" />
<path d="M0 0 C0.66 0.33 1.32 0.66 2 1 C-2.43076923 5.8 -2.43076923 5.8 -5.3125 6.8125 C-6.1478125 6.9053125 -6.1478125 6.9053125 -7 7 C-4.66666667 4.66666667 -2.33333333 2.33333333 0 0 Z M-9 7 C-8.34 7.33 -7.68 7.66 -7 8 C-7.99 8 -8.98 8 -10 8 C-9.67 7.67 -9.34 7.34 -9 7 Z " fill="#151515" transform="translate(772,748)" />
<path d="M0 0 C-0.639375 0.28875 -1.27875 0.5775 -1.9375 0.875 C-4.15206079 1.82823451 -4.15206079 1.82823451 -5 4 C-7.64 3.34 -10.28 2.68 -13 2 C-8.25713263 -0.5408218 -5.30009266 -1.32502317 0 0 Z " fill="#D0CECD" transform="translate(867,740)" />
<path d="M0 0 C1.32 0 2.64 0 4 0 C3.6875 2.875 3.6875 2.875 3 6 C1.515 6.99 1.515 6.99 0 8 C0.33 6.68 0.66 5.36 1 4 C0.34 4 -0.32 4 -1 4 C-0.67 2.68 -0.34 1.36 0 0 Z " fill="#E1E0DF" transform="translate(759,717)" />
<path d="M0 0 C0.66 0.33 1.32 0.66 2 1 C-0.31 3.97 -2.62 6.94 -5 10 C-5.66 9.34 -6.32 8.68 -7 8 C-4.69 5.36 -2.38 2.72 0 0 Z " fill="#E7E6E6" transform="translate(797,557)" />
<path d="M0 0 C0.66 0.33 1.32 0.66 2 1 C-0.01791424 3.84002745 -1.5120097 5.74438603 -4.625 7.375 C-5.800625 7.684375 -5.800625 7.684375 -7 8 C-7.66 7.67 -8.32 7.34 -9 7 C-6.03 4.69 -3.06 2.38 0 0 Z " fill="#1B1B1B" transform="translate(936,506)" />
<path d="M0 0 C0.99 0.33 1.98 0.66 3 1 C0.6875 3.5 0.6875 3.5 -2 6 C-2.99 6 -3.98 6 -5 6 C-3.35 4.02 -1.7 2.04 0 0 Z M-6 6 C-6 9 -6 9 -6 9 Z " fill="#F1F1F1" transform="translate(969,402)" />
<path d="M0 0 C0.99 0 1.98 0 3 0 C3 3.33333333 3 6.66666667 3 10 C2.34 9.67 1.68 9.34 1 9 C0.67 6.03 0.34 3.06 0 0 Z " fill="#AEACAB" transform="translate(585,945)" />
<path d="M0 0 C5.53846154 1.47692308 5.53846154 1.47692308 7.875 4.125 C8.431875 5.053125 8.431875 5.053125 9 6 C8.01 6.33 7.02 6.66 6 7 C3.95880212 5.38405168 1.95927063 3.7143618 0 2 C0 1.34 0 0.68 0 0 Z " fill="#B7B4B5" transform="translate(515,754)" />
<path d="M0 0 C0.66 0.66 1.32 1.32 2 2 C-0.97 4.64 -3.94 7.28 -7 10 C-7.66 9.67 -8.32 9.34 -9 9 C-6.03 6.03 -3.06 3.06 0 0 Z " fill="#0C0C0C" transform="translate(994,456)" />
<path d="M0 0 C0.99 0.495 0.99 0.495 2 1 C2.6328125 3.28515625 2.6328125 3.28515625 3.125 6.0625 C3.29257812 6.98160156 3.46015625 7.90070312 3.6328125 8.84765625 C3.75398437 9.55792969 3.87515625 10.26820313 4 11 C3.01 11 2.02 11 1 11 C-0.28317892 7.15046324 -0.06643637 4.05261865 0 0 Z " fill="#B3B1B0" transform="translate(592,905)" />
<path d="M0 0 C0.66 0.33 1.32 0.66 2 1 C0.90931332 4.77545388 0.0916909 7.47043472 -3 10 C-3 5.66905042 -2.03435531 3.72965139 0 0 Z " fill="#C4C2C1" transform="translate(606,895)" />
<path d="M0 0 C0.66 0.33 1.32 0.66 2 1 C1.01 1.99 0.02 2.98 -1 4 C-1.66 3.67 -2.32 3.34 -3 3 C-2.01 2.01 -1.02 1.02 0 0 Z M-5 4 C-4.34 4.33 -3.68 4.66 -3 5 C-3.99 6.485 -3.99 6.485 -5 8 C-6.32 7.67 -7.64 7.34 -9 7 C-7.68 6.01 -6.36 5.02 -5 4 Z " fill="#141314" transform="translate(858,754)" />
<path d="M0 0 C3.45925163 1.2491742 6.14693203 2.67527795 9 5 C7.3125 5.6875 7.3125 5.6875 5 6 C2.25 4.5625 2.25 4.5625 0 3 C0 2.01 0 1.02 0 0 Z " fill="#A9A5A4" transform="translate(486,734)" />
<path d="M0 0 C0.99 0 1.98 0 3 0 C3.625 2.3125 3.625 2.3125 4 5 C3.01 6.485 3.01 6.485 2 8 C0.4375 5.6875 0.4375 5.6875 -1 3 C-0.67 2.01 -0.34 1.02 0 0 Z " fill="#DADAD9" transform="translate(516,712)" />
<path d="M0 0 C1.17539996 0.92652701 2.34010577 1.86663387 3.5 2.8125 C4.1496875 3.33457031 4.799375 3.85664062 5.46875 4.39453125 C5.9740625 4.92433594 6.479375 5.45414063 7 6 C7 6.99 7 7.98 7 9 C5.82460004 8.07347299 4.65989423 7.13336613 3.5 6.1875 C2.52546875 5.40439453 2.52546875 5.40439453 1.53125 4.60546875 C1.0259375 4.07566406 0.520625 3.54585937 0 3 C0 2.01 0 1.02 0 0 Z " fill="#0D0D0D" transform="translate(272,561)" />
<path d="M0 0 C0.99 0.33 1.98 0.66 3 1 C0.03 3.475 0.03 3.475 -3 6 C-3 5.01 -3 4.02 -3 3 C-1.5 1.3125 -1.5 1.3125 0 0 Z " fill="#F2F0F0" transform="translate(838,515)" />
<path d="M0 0 C0.66 0.99 1.32 1.98 2 3 C0.02 5.97 0.02 5.97 -2 9 C-2.99 8.34 -3.98 7.68 -5 7 C-3.35 4.69 -1.7 2.38 0 0 Z " fill="#BCB9B9" transform="translate(735,823)" />
<path d="M0 0 C1.98 0.495 1.98 0.495 4 1 C3.67 1.33 3.34 1.66 3 2 C4.65 2.99 6.3 3.98 8 5 C7.01 5.33 6.02 5.66 5 6 C1.8125 4.5625 1.8125 4.5625 -1 3 C-0.67 2.01 -0.34 1.02 0 0 Z " fill="#F8F7F7" transform="translate(411,742)" />
<path d="M0 0 C0.66 0.99 1.32 1.98 2 3 C-0.8125 5.0625 -0.8125 5.0625 -4 7 C-4.99 6.67 -5.98 6.34 -7 6 C-4.74259377 3.66475218 -2.7194239 1.81294927 0 0 Z " fill="#C6C3C1" transform="translate(784,737)" />
<path d="M0 0 C3.94139078 1.66751148 6.7892812 4.22710649 10 7 C9.01 7.33 8.02 7.66 7 8 C5.8274869 7.04882866 4.66212985 6.08882991 3.5 5.125 C2.8503125 4.59132813 2.200625 4.05765625 1.53125 3.5078125 C1.0259375 3.01023437 0.520625 2.51265625 0 2 C0 1.34 0 0.68 0 0 Z " fill="#ECEBEB" transform="translate(449,524)" />
<path d="M0 0 C2.32472205 2.85306797 3.7508258 5.54074837 5 9 C4.01 9 3.02 9 2 9 C0.4375 6.75 0.4375 6.75 -1 4 C-0.6875 1.6875 -0.6875 1.6875 0 0 Z " fill="#B9B5B4" transform="translate(679,905)" />
<path d="M0 0 C0.66 0 1.32 0 2 0 C6 6.75 6 6.75 6 9 C5.34 9 4.68 9 4 9 C1.875 6.75 1.875 6.75 0 4 C0 2.68 0 1.36 0 0 Z " fill="#B9B8B8" transform="translate(531,766)" />
<path d="M0 0 C1.65 0 3.3 0 5 0 C4.25 1.9375 4.25 1.9375 3 4 C0.875 4.75 0.875 4.75 -1 5 C-0.67 3.35 -0.34 1.7 0 0 Z " fill="#E1E0DF" transform="translate(756,750)" />
<path d="M0 0 C0.33 0.66 0.66 1.32 1 2 C0.34 1.67 -0.32 1.34 -1 1 C-0.67 0.67 -0.34 0.34 0 0 Z M-7 5 C-6.01 5.33 -5.02 5.66 -4 6 C-5.65 7.32 -7.3 8.64 -9 10 C-8.125 6.125 -8.125 6.125 -7 5 Z " fill="#E2E0E0" transform="translate(787,716)" />
<path d="M0 0 C0.66 0.66 1.32 1.32 2 2 C-0.07105025 4.91481146 -1.48860409 6.75592468 -4.75 8.3125 C-5.86375 8.6528125 -5.86375 8.6528125 -7 9 C-6.02180976 7.68677212 -5.0424189 6.37443848 -4.0625 5.0625 C-3.51722656 4.33160156 -2.97195313 3.60070312 -2.41015625 2.84765625 C-1 1 -1 1 0 0 Z " fill="#171718" transform="translate(955,653)" />
<path d="M0 0 C0 0.66 0 1.32 0 2 C-3.33333333 3.33333333 -6.66666667 4.66666667 -10 6 C-9.67 5.01 -9.34 4.02 -9 3 C-5.78715662 1.11420063 -3.75366417 0 0 0 Z " fill="#EDECEC" transform="translate(904,570)" />
<path d="M0 0 C1.33333333 0.66666667 2.66666667 1.33333333 4 2 C4.70125 2.268125 5.4025 2.53625 6.125 2.8125 C8 4 8 4 9.25 6.625 C9.4975 7.40875 9.745 8.1925 10 9 C8.70391053 8.06862408 7.41328368 7.1296434 6.125 6.1875 C5.40570313 5.66542969 4.68640625 5.14335938 3.9453125 4.60546875 C2 3 2 3 0 0 Z " fill="#DCD9D9" transform="translate(284,571)" />
<path d="M0 0 C0 0.66 0 1.32 0 2 C-5.078125 5.22265625 -5.078125 5.22265625 -7 6 C-9.234375 5.62109375 -9.234375 5.62109375 -11 5 C-9.54462432 4.16151196 -8.08559627 3.32936066 -6.625 2.5 C-5.40683594 1.80390625 -5.40683594 1.80390625 -4.1640625 1.09375 C-2 0 -2 0 0 0 Z " fill="#DDDCDD" transform="translate(933,553)" />
<path d="M0 0 C0.66 0.33 1.32 0.66 2 1 C-0.64 3.97 -3.28 6.94 -6 10 C-6.33 9.01 -6.66 8.02 -7 7 C-4.69 4.69 -2.38 2.38 0 0 Z " fill="#F5F5F4" transform="translate(1004,367)" />
<path d="M0 0 C1.32 0.33 2.64 0.66 4 1 C4 2.98 4 4.96 4 7 C3.34 7 2.68 7 2 7 C0.5393715 4.35261084 0 3.10551666 0 0 Z " fill="#A9A6A6" transform="translate(690,952)" />
<path d="M0 0 C0.99 0.33 1.98 0.66 3 1 C1.87548273 3.9719385 0.77706209 6.33440687 -1 9 C-1.625 7.3125 -1.625 7.3125 -2 5 C-1.0625 2.25 -1.0625 2.25 0 0 Z " fill="#B9B7B7" transform="translate(716,856)" />
<path d="M0 0 C0.33 1.32 0.66 2.64 1 4 C-0.4375 6.75 -0.4375 6.75 -2 9 C-2.99 8.67 -3.98 8.34 -5 8 C-3.35 5.36 -1.7 2.72 0 0 Z " fill="#151515" transform="translate(759,725)" />
<path d="M0 0 C0.66 0 1.32 0 2 0 C2.33 0.99 2.66 1.98 3 3 C1.68 4.65 0.36 6.3 -1 8 C-1.66 7.67 -2.32 7.34 -3 7 C-2.01 4.69 -1.02 2.38 0 0 Z " fill="#E6E5E5" transform="translate(963,637)" />
<path d="M0 0 C0.99 0.99 1.98 1.98 3 3 C2.6875 5.375 2.6875 5.375 2 8 C0.515 8.99 0.515 8.99 -1 10 C-0.67 6.7 -0.34 3.4 0 0 Z " fill="#A09E9E" transform="translate(692,872)" />
<path d="M0 0 C2.3125 0.25 2.3125 0.25 5 1 C6.8125 3.0625 6.8125 3.0625 8 5 C7.01 5 6.02 5 5 5 C2.3125 2.5 2.3125 2.5 0 0 Z " fill="#D7D5D5" transform="translate(520,779)" />
<path d="M0 0 C0.99 0.99 1.98 1.98 3 3 C3 3.66 3 4.32 3 5 C2.34 5 1.68 5 1 5 C1.33 6.65 1.66 8.3 2 10 C1.01 10 0.02 10 -1 10 C-0.67 6.7 -0.34 3.4 0 0 Z " fill="#212021" transform="translate(734,753)" />
<path d="M0 0 C0.66 0 1.32 0 2 0 C2.33 2.64 2.66 5.28 3 8 C2.01 8.495 2.01 8.495 1 9 C0.67 6.03 0.34 3.06 0 0 Z " fill="#CCCBCB" transform="translate(564,746)" />
<path d="M0 0 C0 0.66 0 1.32 0 2 C2.31 2 4.62 2 7 2 C7 2.33 7 2.66 7 3 C3.7 3.33 0.4 3.66 -3 4 C-3.33 3.01 -3.66 2.02 -4 1 C-2 0 -2 0 0 0 Z " fill="#333333" transform="translate(828,743)" />
<path d="M0 0 C0.66 0.33 1.32 0.66 2 1 C2.33 3.97 2.66 6.94 3 10 C2.67 9.01 2.34 8.02 2 7 C1.34 7 0.68 7 0 7 C-0.38133299 5.0085944 -0.71325582 3.00720923 -1 1 C-0.67 0.67 -0.34 0.34 0 0 Z " fill="#B7B5B4" transform="translate(562,734)" />
<path d="M0 0 C-0.75 1.875 -0.75 1.875 -2 4 C-4.125 5.25 -4.125 5.25 -6 6 C-6 5.01 -6 4.02 -6 3 C-2.66666667 0 -2.66666667 0 0 0 Z M-9 5 C-7 6 -7 6 -7 6 Z " fill="#121213" transform="translate(869,555)" />
<path d="M0 0 C3.37503669 1.1858237 5.64722731 2.27573689 8 5 C7.01 5.33 6.02 5.66 5 6 C3.2925002 4.71937515 1.62626404 3.38232443 0 2 C0 1.34 0 0.68 0 0 Z " fill="#CBC8C8" transform="translate(388,540)" />
<path d="M0 0 C0.66 0.66 1.32 1.32 2 2 C-0.97 3.65 -3.94 5.3 -7 7 C-6.67 6.01 -6.34 5.02 -6 4 C-4.04402816 2.60287726 -2.04563599 1.26220093 0 0 Z " fill="#B8B5B4" transform="translate(768,793)" />
<path d="M0 0 C0.33 0.66 0.66 1.32 1 2 C1.99 2.33 2.98 2.66 4 3 C2.35 4.32 0.7 5.64 -1 7 C-1.33 6.01 -1.66 5.02 -2 4 C-1.0625 1.8125 -1.0625 1.8125 0 0 Z " fill="#CBCACA" transform="translate(751,758)" />
<path d="M0 0 C0.66 0.33 1.32 0.66 2 1 C1.125 2.9375 1.125 2.9375 0 5 C-0.99 5.495 -0.99 5.495 -2 6 C-2.66 5.34 -3.32 4.68 -4 4 C-2.68 2.68 -1.36 1.36 0 0 Z " fill="#C2BFBF" transform="translate(760,754)" />
<path d="M0 0 C-3 2 -3 2 -5.26171875 2.1953125 C-6.46248047 2.16050781 -6.46248047 2.16050781 -7.6875 2.125 C-8.89986328 2.09792969 -8.89986328 2.09792969 -10.13671875 2.0703125 C-11.05904297 2.03550781 -11.05904297 2.03550781 -12 2 C-10 0 -10 0 -8.25 -0.6875 C-5.33947272 -1.0917399 -2.86243324 -0.58549771 0 0 Z " fill="#ADABAA" transform="translate(837,717)" />
<path d="M0 0 C0.66 0 1.32 0 2 0 C0.60667426 3.36720387 -0.9789286 4.9859524 -4 7 C-4 6.01 -4 5.02 -4 4 C-2.125 1.8125 -2.125 1.8125 0 0 Z " fill="#D9D7D8" transform="translate(806,640)" />
<path d="M0 0 C0.66 0 1.32 0 2 0 C0.63016497 3.16115776 0.0109362 3.9927092 -3 6 C-3.99 5.67 -4.98 5.34 -6 5 C-1.5078125 1.09375 -1.5078125 1.09375 0 0 Z " fill="#191919" transform="translate(841,574)" />
<path d="M0 0 C0.66 0.33 1.32 0.66 2 1 C0.68 2.65 -0.64 4.3 -2 6 C-3.32 5.67 -4.64 5.34 -6 5 C-4.02 3.35 -2.04 1.7 0 0 Z " fill="#DBD9DA" transform="translate(1011,501)" />
<path d="M0 0 C0.99 0.33 1.98 0.66 3 1 C3 1.66 3 2.32 3 3 C4.32 3.33 5.64 3.66 7 4 C6.67 4.99 6.34 5.98 6 7 C1.125 3.375 1.125 3.375 0 0 Z " fill="#D4D2D2" transform="translate(311,486)" />
<path d="M0 0 C0.33 0 0.66 0 1 0 C1.33 2.97 1.66 5.94 2 9 C0.515 9.99 0.515 9.99 -1 11 C-0.67 7.37 -0.34 3.74 0 0 Z " fill="#C5C2C1" transform="translate(720,810)" />
<path d="M0 0 C0.33 0.99 0.66 1.98 1 3 C-0.65 4.65 -2.3 6.3 -4 8 C-4 7.01 -4 6.02 -4 5 C-2 2.3125 -2 2.3125 0 0 Z " fill="#EAE9E9" transform="translate(788,568)" />
</svg>
